<?xml version="1.0" encoding="utf-8"?>
<!-- Generator: Adobe Illustrator 22.1.0, SVG Export Plug-In . SVG Version: 6.00 Build 0)  -->
<svg version="1.1" id="Layer_1" xmlns="http://www.w3.org/2000/svg" xmlns:xlink="http://www.w3.org/1999/xlink" x="0px" y="0px"
	 viewBox="0 0 53.5 48.1" style="enable-background:new 0 0 53.5 48.1;" xml:space="preserve">
<style type="text/css">
	.st0{fill:#FFFFFF;}
</style>
<g>
	<path class="st0" d="M8.4,47.3c-0.1,0-0.2,0-0.3-0.1c-0.3-0.1-0.6-0.5-0.6-0.8v-7.1H4.4c-1.6,0-2.9-1.3-2.9-2.9V14.6
		c0-1.6,1.3-2.9,2.9-2.9H13c0.5,0,0.9,0.4,0.9,0.9s-0.4,0.9-0.9,0.9H4.4c-0.6,0-1.1,0.5-1.1,1.1v21.9c0,0.6,0.5,1.1,1.1,1.1h4
		c0.5,0,0.9,0.4,0.9,0.9v5.6l5.2-6.2c0.2-0.2,0.4-0.3,0.7-0.3h17.1c0.6,0,1.1-0.5,1.1-1.1v-2.7c0-0.5,0.4-0.9,0.9-0.9
		s0.9,0.4,0.9,0.9v2.7c0,1.6-1.3,2.9-2.9,2.9H15.5L9,47C8.9,47.2,8.6,47.3,8.4,47.3z"/>
	<g>
		<path class="st0" d="M44.8,38.9c-0.3,0-0.5-0.1-0.7-0.3l-6.9-8.2H19.4c-1.6,0-3-1.3-3-3V4.1c0-1.6,1.3-3,3-3H49c1.6,0,3,1.3,3,3
			v23.3c0,1.6-1.3,3-3,3h-3.4V38c0,0.4-0.2,0.7-0.6,0.8C45,38.8,44.9,38.9,44.8,38.9z M19.4,2.8c-0.7,0-1.2,0.6-1.2,1.2v23.3
			c0,0.7,0.6,1.2,1.2,1.2h18.2c0.3,0,0.5,0.1,0.7,0.3l5.6,6.7v-6.1c0-0.5,0.4-0.9,0.9-0.9H49c0.7,0,1.2-0.6,1.2-1.2V4.1
			c0-0.7-0.6-1.2-1.2-1.2H19.4z"/>
		<path class="st0" d="M43.7,16.6H24.7c-0.5,0-0.9-0.4-0.9-0.9c0-0.5,0.4-0.9,0.9-0.9h19.1c0.5,0,0.9,0.4,0.9,0.9
			C44.6,16.2,44.2,16.6,43.7,16.6z"/>
		<path class="st0" d="M43.7,23H24.7c-0.5,0-0.9-0.4-0.9-0.9s0.4-0.9,0.9-0.9h19.1c0.5,0,0.9,0.4,0.9,0.9S44.2,23,43.7,23z"/>
		<path class="st0" d="M43.7,10.3H24.7c-0.5,0-0.9-0.4-0.9-0.9s0.4-0.9,0.9-0.9h19.1c0.5,0,0.9,0.4,0.9,0.9S44.2,10.3,43.7,10.3z"/>
	</g>
</g>
</svg>
